<?xml version="1.0" encoding="utf-8"?>
<!-- Generator: Adobe Illustrator 21.0.2, SVG Export Plug-In . SVG Version: 6.00 Build 0)  -->
<svg version="1.1" id="Ebene_1" xmlns="http://www.w3.org/2000/svg" xmlns:xlink="http://www.w3.org/1999/xlink" x="0px" y="0px"
	 viewBox="0 0 64 64" style="enable-background:new 0 0 64 64;" xml:space="preserve">
<style type="text/css">
	.st0{fill:#2062AF;}
	.st1{fill:#FFFFFF;}
	.st2{opacity:0.5;fill:#2062AF;enable-background:new    ;}
</style>
<title>module-indexed_search</title>
<g>
	<path class="st0" d="M0,0h64v64H0V0z"/>
	<path class="st1" d="M28.4,35.4l1.7,1l-6.5,11.3l-1.7-1C21.9,46.6,28.4,35.4,28.4,35.4z M35.6,35.4l-1.7,1l6.5,11.3l1.7-1
		C42.1,46.6,35.6,35.4,35.6,35.4z"/>
	<path class="st1" d="M47,20H17c-0.5,0-1,0.4-1,1s0.4,1,1,1h1v17c0,0.5,0.4,1,1,1h26c0.5,0,1-0.4,1-1l0,0V22h1c0.5,0,1-0.4,1-1
		S47.6,20,47,20z M35.1,31.9l-0.8,0.8l-0.8-0.8L31,29.3L25.3,35l-1.5-1.5l6.4-6.4l0.8-0.8l0.8,0.8l2.7,2.7l4.6-4.6l1.5,1.5
		L35.1,31.9z"/>
	<path class="st2" d="M18,40h28v2H18V40z"/>
</g>
</svg>
