<?xml version="1.0" encoding="utf-8"?>
<!-- Generator: Adobe Illustrator 21.0.2, SVG Export Plug-In . SVG Version: 6.00 Build 0)  -->
<svg version="1.1" id="Ebene_1" xmlns="http://www.w3.org/2000/svg" xmlns:xlink="http://www.w3.org/1999/xlink" x="0px" y="0px"
	 viewBox="0 0 64 64" style="enable-background:new 0 0 64 64;" xml:space="preserve">
<style type="text/css">
	.st0{fill:#2062AF;}
	.st1{fill:#FFFFFF;}
	.st2{opacity:0.3;fill:#FFFFFF;enable-background:new    ;}
</style>
<path class="st0" d="M0,0h64v64H0V0z"/>
<path class="st1" d="M49,26h-3v2h2v20H28v-2h-2v3c0,0.6,0.4,1,1,1h22c0.6,0,1-0.4,1-1V27C50,26.4,49.6,26,49,26z"/>
<path class="st1" d="M43,14H21c-0.6,0-1,0.4-1,1v3h2v-2h20v20h-2v2h3c0.6,0,1-0.4,1-1V15C44,14.4,43.6,14,43,14z"/>
<path class="st1" d="M37,20H15c-0.6,0-1,0.4-1,1v22c0,0.6,0.4,1,1,1h22c0.6,0,1-0.4,1-1V21C38,20.4,37.6,20,37,20z M36,42H16V22h20
	V42z"/>
<path class="st2" d="M20,18h2v2h-2V18z M38,36h2v2h-2V36z M44,26h2v2h-2V26z M26,44h2v2h-2V44z"/>
</svg>
