<?xml version="1.0" encoding="utf-8"?>
<!-- Generator: Adobe Illustrator 21.0.2, SVG Export Plug-In . SVG Version: 6.00 Build 0)  -->
<svg version="1.1" id="Ebene_1" xmlns="http://www.w3.org/2000/svg" xmlns:xlink="http://www.w3.org/1999/xlink" x="0px" y="0px"
	 viewBox="0 0 64 64" style="enable-background:new 0 0 64 64;" xml:space="preserve">
<style type="text/css">
	.st0{fill:#2062AF;}
	.st1{fill:#FFFFFF;}
</style>
<path class="st0" d="M0,0h64v64H0V0z"/>
<path class="st1" d="M46.6,41.2c-2.8-0.8-5-1.8-7-2.7c0,0.5-0.2,1.1-0.8,1.7C37.2,41.9,34.7,44,32,44s-5.3-2.1-6.9-3.8
	c-0.6-0.6-0.7-1.2-0.8-1.7c-2,0.9-4.2,1.9-7,2.7c0,0-3.1,1.9-3.4,8.9h36C49.8,42.9,46.6,41.2,46.6,41.2z"/>
<path class="st1" d="M40,20.5c0-3.6-3.2-6.5-7-6.5h-2c-3.6,0-7,2.9-7,6.5v5c0,2.1,1.6,4.7,3.5,6.6c-0.1,5.4-1.7,5.9-0.9,6.7
	c2.5,2.7,8.1,2.9,10.8,0c0.8-0.8-0.6-1.3-0.9-6.7c1.8-1.8,3.4-4.5,3.5-6.6V20.5z"/>
</svg>
